<?xml version="1.0" standalone="no"?>
<!DOCTYPE svg PUBLIC "-//W3C//DTD SVG 20010904//EN"
 "http://www.w3.org/TR/2001/REC-SVG-20010904/DTD/svg10.dtd">
<svg version="1.0" xmlns="http://www.w3.org/2000/svg"
 width="700.000000pt" height="700.000000pt" viewBox="0 0 700.000000 700.000000"
 preserveAspectRatio="xMidYMid meet">
<metadata>
Created by potrace 1.14, written by Peter Selinger 2001-2017
</metadata>
<g transform="translate(0.000000,700.000000) scale(0.100000,-0.100000)"
fill="#000000" stroke="none">
<path d="M5725 6775 c-99 -23 -108 -31 -371 -310 -73 -77 -146 -156 -164 -175
-18 -19 -87 -93 -155 -165 -67 -71 -137 -146 -155 -165 -18 -19 -87 -93 -155
-165 -67 -71 -137 -146 -155 -165 -18 -19 -83 -89 -145 -155 -63 -66 -130
-138 -151 -160 -20 -22 -96 -103 -168 -179 -72 -77 -142 -151 -156 -166 -14
-15 -58 -61 -98 -104 l-73 -77 -107 7 c-59 3 -143 7 -187 10 -100 4 -741 4
-851 -1 -104 -4 -294 -15 -359 -20 -61 -5 -185 -15 -240 -20 -62 -5 -153 -15
-230 -25 -38 -5 -90 -12 -115 -15 -190 -25 -413 -66 -550 -100 -30 -8 -67 -16
-81 -18 -50 -9 -276 -80 -364 -114 -230 -90 -385 -201 -446 -321 -23 -45 -24
-54 -24 -257 0 -379 44 -666 150 -990 143 -437 362 -798 682 -1124 67 -69 121
-126 120 -127 -1 0 -33 -14 -72 -29 -255 -99 -449 -246 -519 -395 -28 -59 -31
-74 -31 -161 0 -89 2 -100 35 -164 120 -236 484 -430 1050 -560 218 -50 506
-95 697 -111 43 -3 89 -7 102 -10 128 -19 839 -26 1111 -11 80 5 147 10 150
12 3 1 42 6 86 9 45 4 93 9 105 11 13 2 67 9 119 15 52 7 102 13 110 15 8 1
35 6 60 9 436 66 900 221 1125 377 87 60 195 170 226 231 140 272 -47 545
-498 728 -46 19 -83 37 -83 40 0 3 30 35 68 71 109 106 205 213 281 312 25 32
56 64 71 72 41 21 165 43 280 50 141 8 206 14 260 26 25 6 52 12 60 14 50 10
156 53 227 90 273 144 473 398 552 700 35 135 45 433 17 530 -41 138 -151 241
-295 275 -95 22 -341 -5 -436 -49 -11 -5 -45 -20 -76 -34 l-56 -25 1 202 1
201 -32 60 c-76 145 -264 264 -573 363 -135 44 -385 107 -505 127 -16 3 -79
14 -140 25 -135 24 -163 28 -194 29 -22 1 -20 5 25 47 125 118 347 327 424
400 47 45 101 96 120 114 19 18 96 90 170 160 74 70 151 142 170 160 19 18 69
64 110 104 42 39 150 141 240 226 328 309 364 347 387 418 29 90 23 175 -17
256 -67 135 -218 206 -365 171z m136 -228 c30 -19 51 -72 43 -112 -6 -32 -101
-130 -344 -355 -19 -17 -69 -64 -110 -103 -74 -70 -320 -303 -410 -387 -25
-23 -109 -103 -187 -177 -78 -74 -151 -142 -162 -152 -11 -10 -94 -87 -183
-172 -230 -218 -221 -210 -348 -329 -63 -60 -138 -130 -166 -157 -28 -26 -111
-104 -184 -173 -73 -69 -147 -138 -165 -155 -17 -16 -74 -70 -126 -120 -115
-110 -143 -134 -138 -118 2 6 54 65 115 130 61 65 126 134 144 153 43 46 154
164 254 270 45 47 142 151 216 230 74 79 169 180 211 225 42 44 103 109 135
144 32 35 77 82 99 105 36 37 236 250 323 345 19 20 89 95 157 166 67 72 137
146 155 165 18 19 62 67 99 105 36 39 123 131 193 205 70 74 155 165 190 202
35 37 74 72 88 77 29 11 72 6 101 -12z m-2403 -1961 c63 -2 115 -6 117 -8 2
-2 -17 -26 -43 -53 -27 -28 -112 -119 -191 -202 l-143 -153 -36 16 c-273 119
-583 100 -873 -53 -211 -111 -395 -296 -526 -528 -6 -11 -18 -19 -27 -19 -72
6 -193 25 -381 59 -110 21 -321 74 -440 112 -277 89 -475 209 -475 290 0 77
174 190 420 273 84 28 355 101 421 114 101 19 200 36 229 41 19 3 60 10 90 15
30 5 78 12 105 16 28 3 58 8 67 9 9 2 48 7 85 10 37 4 75 9 83 10 8 2 51 6 95
10 44 4 89 8 100 10 12 2 70 6 130 10 61 4 130 9 155 11 25 2 151 6 280 10
129 4 236 7 237 8 4 3 417 -3 521 -8z m890 -71 c92 -11 128 -16 142 -20 8 -2
35 -7 60 -10 25 -3 95 -15 155 -26 61 -12 121 -23 135 -25 82 -15 294 -72 407
-110 275 -91 450 -206 438 -286 -13 -79 -185 -186 -435 -268 -101 -34 -348
-100 -420 -113 -73 -14 -107 -20 -125 -24 -11 -2 -36 -6 -55 -9 -19 -2 -46 -7
-60 -9 -61 -12 -210 -34 -265 -40 -33 -3 -71 -8 -85 -10 -52 -8 -117 -14 -190
-20 -41 -3 -91 -7 -110 -10 -19 -2 -82 -7 -140 -10 -58 -4 -124 -8 -147 -10
-24 -2 -43 0 -44 3 0 4 -2 16 -4 27 -2 11 -7 40 -11 65 -4 25 -8 47 -9 50 -1
3 -5 19 -10 35 -4 17 -19 59 -33 94 l-25 64 70 66 c99 93 194 182 373 351 303
287 271 261 310 255 19 -2 54 -7 78 -10z m-1394 -489 c235 -56 416 -265 429
-496 l2 -25 -360 0 c-383 1 -607 9 -835 30 -30 3 -86 8 -125 11 -38 3 -71 7
-73 9 -7 6 63 103 122 169 54 61 200 181 236 194 8 3 22 10 30 17 30 24 178
78 259 95 100 20 220 19 315 -4z m-2149 -464 c141 -47 320 -93 495 -127 157
-31 170 -33 255 -45 123 -19 117 -15 110 -63 -4 -23 -10 -62 -15 -87 -13 -68
-4 -257 14 -330 59 -228 186 -400 376 -508 69 -38 217 -88 290 -97 63 -7 210
-7 255 0 16 3 41 7 55 9 204 33 443 162 613 330 164 162 309 424 333 601 4 25
9 46 13 46 12 2 68 6 186 14 66 4 136 8 155 10 19 2 64 6 100 9 122 11 194 18
210 21 8 1 44 6 80 10 36 4 74 9 85 11 11 2 40 6 65 9 25 3 56 8 70 10 14 3
43 8 65 11 334 48 749 165 958 269 l108 54 -6 -67 c-3 -37 -8 -80 -10 -97 -2
-16 -7 -52 -10 -80 -21 -170 -99 -461 -172 -645 -75 -189 -204 -430 -287 -535
-17 -22 -45 -60 -61 -84 -17 -24 -63 -82 -102 -127 -419 -479 -949 -761 -1613
-859 -165 -24 -560 -25 -700 -1 -14 2 -47 7 -73 11 -27 4 -59 8 -70 11 -255
48 -479 122 -697 230 -497 245 -885 632 -1140 1139 -137 271 -208 495 -264
830 -15 89 -31 247 -27 265 0 3 54 -20 119 -51 64 -31 171 -75 237 -97z m5655
33 c44 -23 88 -72 96 -108 9 -38 8 -239 -1 -317 -33 -267 -201 -517 -436 -649
-134 -75 -265 -109 -449 -115 -64 -3 -120 -6 -125 -8 -22 -7 -18 11 22 87 135
260 250 608 289 874 5 35 15 54 45 83 67 64 214 135 320 153 18 3 34 7 36 8 1
2 40 4 87 5 62 3 93 -1 116 -13z m-4380 -270 c19 -2 73 -6 120 -10 47 -3 103
-8 125 -10 128 -11 422 -19 713 -20 l332 0 -4 -25 c-7 -43 -37 -122 -73 -195
-207 -415 -706 -650 -1071 -504 -91 36 -142 71 -210 143 -129 137 -181 366
-132 584 l12 53 76 -6 c43 -4 93 -8 112 -10z m-612 -1865 c40 -27 74 -50 76
-50 2 0 35 -19 72 -42 186 -113 485 -234 724 -293 253 -63 451 -88 705 -89
126 0 328 10 371 18 12 2 45 7 75 11 30 4 56 8 59 10 3 2 27 6 54 9 120 16
362 85 520 148 192 76 423 198 558 296 59 42 65 41 243 -31 263 -107 413 -223
431 -334 28 -175 -305 -382 -825 -513 -65 -16 -136 -33 -158 -36 -21 -3 -40
-7 -43 -9 -7 -4 -180 -35 -230 -41 -19 -2 -47 -7 -62 -10 -29 -6 -50 -8 -148
-19 -36 -4 -76 -8 -90 -10 -14 -2 -61 -7 -105 -10 -44 -3 -102 -8 -130 -10
-391 -33 -1013 -15 -1415 41 -509 71 -893 180 -1143 326 -189 110 -269 226
-228 330 27 72 154 172 312 248 89 42 264 109 289 110 9 0 48 -22 88 -50z"/>
<path d="M3212 6752 c-34 -32 -47 -77 -32 -116 13 -34 140 -163 174 -175 51
-20 115 7 136 58 25 62 -3 111 -128 224 -54 48 -105 51 -150 9z"/>
<path d="M3765 6758 c-33 -26 -108 -101 -136 -137 -38 -48 -13 -132 46 -157
57 -24 91 -9 176 77 85 85 99 116 76 170 -19 46 -39 61 -90 66 -34 4 -48 0
-72 -19z"/>
<path d="M3364 6342 c-22 -3 -138 -111 -172 -160 -30 -42 -23 -98 16 -133 18
-16 39 -30 47 -30 8 -1 21 -2 28 -3 33 -5 153 93 199 163 52 77 -22 179 -118
163z"/>
<path d="M3686 6335 c-21 -7 -39 -15 -40 -17 -38 -50 -46 -90 -25 -131 20 -39
159 -167 182 -168 73 -4 121 29 132 88 8 47 -6 71 -85 150 -84 83 -110 96
-164 78z"/>
<path d="M1053 5895 c-58 -25 -84 -98 -54 -153 5 -9 41 -48 78 -85 53 -51 78
-69 106 -74 74 -12 127 35 127 111 0 31 -11 47 -72 112 -63 67 -117 105 -145
104 -4 -1 -23 -7 -40 -15z"/>
<path d="M1588 5892 c-46 -30 -155 -150 -162 -178 -17 -64 37 -134 104 -134
43 0 64 15 151 103 68 70 81 109 55 163 -24 52 -103 76 -148 46z"/>
<path d="M1147 5452 c-41 -28 -157 -153 -158 -171 -6 -66 11 -104 56 -126 63
-29 90 -18 183 74 68 68 82 90 82 133 0 80 -98 135 -163 90z"/>
<path d="M1482 5457 c-51 -29 -73 -96 -49 -144 22 -41 150 -161 180 -168 36
-9 70 0 104 29 24 21 28 32 28 75 0 49 -2 52 -70 121 -97 99 -138 117 -193 87z"/>
<path d="M5975 5351 c-47 -20 -77 -78 -64 -126 8 -29 94 -127 152 -172 41 -32
102 -25 139 16 15 17 29 38 29 46 1 8 2 21 3 28 4 25 -28 72 -91 134 -80 80
-115 95 -168 74z"/>
<path d="M6515 5346 c-37 -17 -164 -150 -166 -174 -5 -62 14 -113 49 -127 72
-29 112 -10 215 102 50 54 57 68 57 103 0 78 -83 130 -155 96z"/>
<path d="M5994 4836 c-82 -82 -90 -96 -84 -151 5 -59 77 -104 133 -85 33 11
158 125 178 163 7 12 12 36 11 54 -3 63 -48 103 -118 103 -31 0 -46 -11 -120
-84z"/>
<path d="M6381 4891 c-29 -27 -33 -37 -33 -76 0 -8 0 -23 1 -33 1 -23 128
-155 167 -174 81 -42 173 35 150 126 -7 27 -127 155 -164 175 -38 21 -88 13
-121 -18z"/>
</g>
</svg>
